{"asset":{"generator":"glTF-Transform v4.0.2","version":"2.0","extras":{"author":"Leo Isidro (https://sketchfab.com/leo.isidro3)","license":"CC-BY-4.0 (http://creativecommons.org/licenses/by/4.0/)","source":"https://sketchfab.com/3d-models/pizza-5b19b3bb03ed4a0c846f208b708bf24c","title":"PIZZA"}},"accessors":[{"type":"VEC3","componentType":5126,"count":3131,"max":[49.70008850097656,7.115344047546387,5.273878574371338],"min":[-49.58909606933594,-7.02995491027832,-5.349315643310547],"bufferView":0,"byteOffset":0},{"type":"VEC3","componentType":5126,"count":3131,"bufferView":0,"byteOffset":12},{"type":"VEC2","componentType":5126,"count":3131,"bufferView":0,"byteOffset":24},{"type":"SCALAR","componentType":5125,"count":18078,"bufferView":1,"byteOffset":0},{"type":"SCALAR","componentType":5125,"count":87264,"bufferView":1,"byteOffset":72312},{"type":"SCALAR","componentType":5125,"count":28188,"bufferView":1,"byteOffset":421368},{"type":"SCALAR","componentType":5125,"count":15966,"bufferView":1,"byteOffset":534120},{"type":"SCALAR","componentType":5125,"count":15318,"bufferView":1,"byteOffset":597984},{"type":"SCALAR","componentType":5125,"count":14742,"bufferView":1,"byteOffset":659256},{"type":"VEC3","componentType":5126,"count":14643,"max":[43.904449462890625,32.46186828613281,43.34962463378906],"min":[-43.23212814331055,-32.3974494934082,-43.26153564453125],"bufferView":2,"byteOffset":0},{"type":"VEC3","componentType":5126,"count":14643,"bufferView":2,"byteOffset":12},{"type":"VEC2","componentType":5126,"count":14643,"bufferView":2,"byteOffset":24},{"type":"VEC3","componentType":5126,"count":4789,"max":[52.78932189941406,37.029571533203125,50.08871841430664],"min":[-52.78932189941406,-37.029571533203125,-50.08871841430664],"bufferView":3,"byteOffset":0},{"type":"VEC3","componentType":5126,"count":4789,"bufferView":3,"byteOffset":12},{"type":"VEC2","componentType":5126,"count":4789,"bufferView":3,"byteOffset":24},{"type":"VEC3","componentType":5126,"count":2767,"max":[15.299776077270508,6.092045307159424,15.43274974822998],"min":[-15.300152778625488,-6.086302757263184,-15.437588691711426],"bufferView":4,"byteOffset":0},{"type":"VEC3","componentType":5126,"count":2767,"bufferView":4,"byteOffset":12},{"type":"VEC3","componentType":5126,"count":2623,"max":[14.467155456542969,7.943911075592041,12.7296142578125],"min":[-14.457723617553711,-7.939702033996582,-12.72713565826416],"bufferView":5,"byteOffset":0},{"type":"VEC3","componentType":5126,"count":2623,"bufferView":5,"byteOffset":12},{"type":"VEC3","componentType":5126,"count":2530,"max":[10.31850814819336,7.35868501663208,7.164156436920166],"min":[-10.329811096191406,-7.397584438323975,-7.1694016456604],"bufferView":6,"byteOffset":0},{"type":"VEC3","componentType":5126,"count":2530,"bufferView":6,"byteOffset":12}],"bufferViews":[{"buffer":0,"byteOffset":0,"byteLength":100192,"byteStride":32,"target":34962},{"buffer":0,"byteOffset":100192,"byteLength":718224,"target":34963},{"buffer":0,"byteOffset":818416,"byteLength":468576,"byteStride":32,"target":34962},{"buffer":0,"byteOffset":1286992,"byteLength":153248,"byteStride":32,"target":34962},{"buffer":0,"byteOffset":1440240,"byteLength":66408,"byteStride":24,"target":34962},{"buffer":0,"byteOffset":1506648,"byteLength":62952,"byteStride":24,"target":34962},{"buffer":0,"byteOffset":1569600,"byteLength":60720,"byteStride":24,"target":34962}],"buffers":[{"uri":"scene.bin","byteLength":1630320}],"materials":[{"name":"Mat.3","doubleSided":true,"pbrMetallicRoughness":{"baseColorFactor":[1,0.6899102463888378,0.08756462137077992,1],"roughnessFactor":0.4622727365204782,"metallicFactor":0},"extensions":{"KHR_materials_ior":{"ior":1000},"KHR_materials_specular":{"specularColorFactor":[0.2804545547022964,0.15300411544566264,0]}}},{"name":"Mat.1","doubleSided":true,"pbrMetallicRoughness":{"baseColorFactor":[1,0.6068321564485184,0,1],"roughnessFactor":0.2986363728841146,"metallicFactor":0},"extensions":{"KHR_materials_ior":{"ior":1000},"KHR_materials_specular":{"specularColorFactor":[1,0.12796030224583144,0]}}},{"name":"material","doubleSided":true,"pbrMetallicRoughness":{"baseColorFactor":[0.9720470726719795,0.32278744327450903,0.011518620172932148,1],"metallicFactor":0},"extensions":{"KHR_materials_ior":{"ior":1000},"KHR_materials_specular":{"specularColorFactor":[0.30469697894472064,0.19383263177915627,0.045979123686425476]}}},{"name":"Mat.2","doubleSided":true,"pbrMetallicRoughness":{"baseColorFactor":[1,0.05960276411550297,0,1],"roughnessFactor":0.1592424334901752,"metallicFactor":0},"extensions":{"KHR_materials_ior":{"ior":1000},"KHR_materials_specular":{"specularColorFactor":[0.03803031227805398,0.010100454816172763,0]}}}],"meshes":[{"name":"CHEESE_Mat.3_0","primitives":[{"attributes":{"NORMAL":1,"POSITION":0,"TEXCOORD_0":2},"mode":4,"material":0,"indices":3}]},{"name":"CHEESE_2_Mat.1_0","primitives":[{"attributes":{"NORMAL":10,"POSITION":9,"TEXCOORD_0":11},"mode":4,"material":1,"indices":4}]},{"name":"BREAD_Mat_0","primitives":[{"attributes":{"NORMAL":13,"POSITION":12,"TEXCOORD_0":14},"mode":4,"material":2,"indices":5}]},{"name":"PEPPERONI_Mat.2_0","primitives":[{"attributes":{"NORMAL":16,"POSITION":15},"mode":4,"material":3,"indices":6}]},{"name":"PEPPERONI_2_Mat.2_0","primitives":[{"attributes":{"NORMAL":18,"POSITION":17},"mode":4,"material":3,"indices":7}]},{"name":"PEPPERONI_3_Mat.2_0","primitives":[{"attributes":{"NORMAL":20,"POSITION":19},"mode":4,"material":3,"indices":8}]}],"nodes":[{"name":"Sketchfab_model","rotation":[-0.7071067811865475,0,0,0.7071067811865476],"children":[1]},{"name":"f9ab19da34b44b20a5f4d4f0c10ce874.fbx","rotation":[0.7071067811865475,0,0,0.7071067811865476],"children":[2]},{"name":"RootNode","children":[3,5,7,9,11,13]},{"name":"CHEESE","translation":[4.760128974914551,16.960386276245117,36.15693664550781],"children":[4]},{"name":"CHEESE_Mat.3_0","mesh":0},{"name":"CHEESE_2","translation":[4.540984630584717,-12.228854179382324,-11.565404891967773],"children":[6]},{"name":"CHEESE_2_Mat.1_0","mesh":1},{"name":"BREAD","translation":[4.7423930168151855,-8.311079025268555,1.4011625051498413],"children":[8]},{"name":"BREAD_Mat_0","mesh":2},{"name":"PEPPERONI","translation":[-18.11305046081543,13.958353996276855,11.387389183044434],"children":[10]},{"name":"PEPPERONI_Mat.2_0","mesh":3},{"name":"PEPPERONI_2","translation":[18.11305046081543,3.4884047508239746,-11.64269733428955],"children":[12]},{"name":"PEPPERONI_2_Mat.2_0","mesh":4},{"name":"PEPPERONI_3","translation":[-3.978456974029541,-16.960386276245117,-36.15693664550781],"children":[14]},{"name":"PEPPERONI_3_Mat.2_0","mesh":5}],"scenes":[{"name":"Sketchfab_Scene","nodes":[0]}],"scene":0,"extensionsUsed":["KHR_materials_ior","KHR_materials_specular"]}